<?xml version="1.0" encoding="utf-8"?>
<!-- Generator: Adobe Illustrator 23.0.1, SVG Export Plug-In . SVG Version: 6.00 Build 0)  -->
<svg version="1.1" id="Layer_1" xmlns="http://www.w3.org/2000/svg" xmlns:xlink="http://www.w3.org/1999/xlink" x="0px" y="0px"
	 viewBox="0 0 24 24" style="enable-background:new 0 0 24 24;" xml:space="preserve">
<style type="text/css">
	.st0{display:none;fill:none;stroke:#F70808;stroke-width:0.1;stroke-miterlimit:10;}
</style>
<path d="M10.5,19.7c0-1.4,0.5-2.7,1.3-3.7H11v-2h2v0.8c1-0.7,2.2-1.1,3.4-1.1c0.9,0,1.8,0.2,2.6,0.6V4c0-1.1-0.9-2-2-2H7
	C5.9,2,5,2.9,5,4v16c0,1.1,0.9,2,2,2h3.9C10.6,21.3,10.5,20.5,10.5,19.7z M13,12h-2v-2h2V12z M17,12h-2v-2h2V12z M7,4h10v4H7V4z
	 M9,20H7v-2h2V20z M9,16H7v-2h2V16z M9,12H7v-2h2V12z"/>
<polygon points="15.5,23.6 15.5,20.6 12.5,20.6 12.5,18.8 15.5,18.8 15.5,15.8 17.4,15.8 17.4,18.8 20.3,18.8 20.3,20.6 17.4,20.6 
	17.4,23.6 "/>
<circle class="st0" cx="16.4" cy="19.7" r="6"/>
</svg>
