<?xml version="1.0" encoding="utf-8"?>
<!-- Generator: Adobe Illustrator 23.0.1, SVG Export Plug-In . SVG Version: 6.00 Build 0)  -->
<svg version="1.1" id="Layer_1" xmlns="http://www.w3.org/2000/svg" xmlns:xlink="http://www.w3.org/1999/xlink" x="0px" y="0px"
	 viewBox="0 0 24 24" style="enable-background:new 0 0 24 24;" xml:space="preserve">
<style type="text/css">
	.st0{display:none;}
	.st1{display:none;fill:none;stroke:#F70808;stroke-width:0.1;stroke-miterlimit:10;}
</style>
<path d="M10.5,19.7c0-1.4,0.5-2.7,1.3-3.7H11v-2h2v0.8c1-0.7,2.2-1.1,3.4-1.1c0.9,0,1.8,0.2,2.6,0.6V4c0-1.1-0.9-2-2-2H7
	C5.9,2,5,2.9,5,4v16c0,1.1,0.9,2,2,2h3.9C10.6,21.3,10.5,20.5,10.5,19.7z M13,12h-2v-2h2V12z M17,12h-2v-2h2V12z M7,4h10v4H7V4z
	 M9,20H7v-2h2V20z M9,16H7v-2h2V16z M9,12H7v-2h2V12z"/>
<path d="M16.5,23.8c-2.3,0-4.1-1.8-4.1-4.1s1.8-4.1,4.1-4.1s4.1,1.8,4.1,4.1S18.7,23.8,16.5,23.8z M14.2,18.5
	c-0.2,0.4-0.3,0.8-0.3,1.2c0,1.4,1.2,2.6,2.6,2.6c0.4,0,0.8-0.1,1.2-0.3L14.2,18.5z M18.7,20.9c0.2-0.4,0.3-0.8,0.3-1.2
	c0-1.4-1.2-2.6-2.6-2.6c-0.4,0-0.8,0.1-1.2,0.3L18.7,20.9z"/>
<path class="st0" d="M16.5,24c-2.4,0-4.3-1.9-4.3-4.3s1.9-4.3,4.3-4.3s4.3,1.9,4.3,4.3S18.8,24,16.5,24z M14.1,18.5
	c-0.2,0.4-0.3,0.8-0.3,1.3c0,1.5,1.2,2.7,2.7,2.7c0.4,0,0.9-0.1,1.3-0.3L14.1,18.5z M18.8,21c0.2-0.4,0.3-0.8,0.3-1.3
	c0-1.5-1.2-2.7-2.7-2.7c-0.4,0-0.9,0.1-1.3,0.3L18.8,21z"/>
<path class="st0" d="M16.5,23.9c-2.3,0-4.2-1.9-4.2-4.2s1.9-4.2,4.2-4.2s4.2,1.9,4.2,4.2S18.8,23.9,16.5,23.9z M14,18.4
	c-0.2,0.4-0.3,0.8-0.3,1.3c0,1.5,1.3,2.8,2.8,2.8c0.5,0,0.9-0.1,1.3-0.3l0.1-0.1L14,18.3L14,18.4z M16.5,16.9
	c-0.5,0-0.9,0.1-1.3,0.3L15,17.3l3.8,3.8l0.1-0.1c0.2-0.4,0.3-0.8,0.3-1.3C19.3,18.2,18,16.9,16.5,16.9z"/>
<circle class="st1" cx="16.5" cy="19.7" r="6"/>
</svg>
