<?xml version="1.0" encoding="utf-8"?>
<!-- Generator: Adobe Illustrator 23.0.1, SVG Export Plug-In . SVG Version: 6.00 Build 0)  -->
<svg version="1.1" id="Layer_1" xmlns="http://www.w3.org/2000/svg" xmlns:xlink="http://www.w3.org/1999/xlink" x="0px" y="0px"
	 viewBox="0 0 24 24" style="enable-background:new 0 0 24 24;" xml:space="preserve">
<style type="text/css">
	.st0{display:none;}
</style>
<path class="st0" d="M12,21c-5,0-9-4-9-9s4-9,9-9s9,4,9,9S17,21,12,21z M7,9.4c-0.4,0.8-0.7,1.7-0.7,2.6c0,3.1,2.5,5.7,5.7,5.7
	c0.9,0,1.8-0.2,2.6-0.6L7,9.4z M17,14.6c0.4-0.8,0.6-1.7,0.6-2.6c0-3.1-2.5-5.7-5.7-5.7c-0.9,0-1.8,0.2-2.6,0.7L17,14.6z"/>
<path class="st0" d="M12,20.8c-4.9,0-8.8-3.9-8.8-8.8S7.1,3.2,12,3.2s8.8,3.9,8.8,8.8S16.9,20.8,12,20.8z M6.8,9.3
	C6.4,10.1,6.1,11,6.1,12c0,3.2,2.6,5.9,5.9,5.9c1,0,1.9-0.2,2.7-0.7l0.2-0.1l-8-8L6.8,9.3z M12,6.1c-1,0-1.9,0.2-2.7,0.7L9,6.9l8,8
	l0.1-0.2c0.4-0.8,0.7-1.8,0.7-2.7C17.9,8.8,15.2,6.1,12,6.1z"/>
<path d="M12,21c-5,0-9-4-9-9s4-9,9-9s9,4,9,9S17,21,12,21z M6.4,9C5.9,10,5.7,11,5.7,12c0,3.5,2.8,6.3,6.3,6.3c1,0,2.1-0.3,3-0.7
	l0.5-0.3L6.7,8.5L6.4,9z M12,5.7c-1,0-2,0.2-3,0.7L8.5,6.7l8.8,8.8l0.3-0.5c0.5-0.9,0.7-1.9,0.7-3C18.3,8.5,15.5,5.7,12,5.7z"/>
</svg>
