<?xml version="1.0" encoding="utf-8"?>
<!-- Generator: Adobe Illustrator 23.0.1, SVG Export Plug-In . SVG Version: 6.00 Build 0)  -->
<svg version="1.1" id="Layer_1" xmlns="http://www.w3.org/2000/svg" xmlns:xlink="http://www.w3.org/1999/xlink" x="0px" y="0px"
	 viewBox="0 0 24 24" style="enable-background:new 0 0 24 24;" xml:space="preserve">
<style type="text/css">
	.st0{display:none;fill:none;stroke:#F70808;stroke-width:0.1;stroke-miterlimit:10;}
</style>
<path d="M18,12c1,0,2,0.2,2.9,0.7C21,12.1,21,11.6,21,11V5l-9-4L3,5v6c0,5.5,3.8,10.7,9,12c0.4-0.1,0.7-0.2,1-0.3
	c-1-1.2-1.5-2.7-1.5-4.2C11.5,14.9,14.4,12,18,12"/>
<polygon points="17,22.4 17,19.5 14.1,19.5 14.1,17.6 17,17.6 17,14.6 18.9,14.6 18.9,17.6 21.9,17.6 21.9,19.5 18.9,19.5 
	18.9,22.4 "/>
<circle class="st0" cx="18" cy="18.5" r="6.5"/>
</svg>
