<?xml version="1.0" encoding="utf-8"?>
<!-- Generator: Adobe Illustrator 23.0.1, SVG Export Plug-In . SVG Version: 6.00 Build 0)  -->
<svg version="1.1" id="Layer_1" xmlns="http://www.w3.org/2000/svg" xmlns:xlink="http://www.w3.org/1999/xlink" x="0px" y="0px"
	 viewBox="0 0 24 24" style="enable-background:new 0 0 24 24;" xml:space="preserve">
<style type="text/css">
	.st0{display:none;}
	.st1{display:none;fill:none;stroke:#F70808;stroke-width:0.1;stroke-miterlimit:10;}
</style>
<path d="M18,12c1,0,2,0.2,2.9,0.7C21,12.1,21,11.6,21,11V5l-9-4L3,5v6c0,5.5,3.8,10.7,9,12c0.4-0.1,0.7-0.2,1-0.3
	c-1-1.2-1.5-2.7-1.5-4.2C11.5,14.9,14.4,12,18,12"/>
<path class="st0" d="M18,22.6c-2.3,0-4.1-1.8-4.1-4.1s1.8-4.1,4.1-4.1s4.1,1.8,4.1,4.1S20.2,22.6,18,22.6z M15.7,17.3
	c-0.2,0.4-0.3,0.8-0.3,1.2c0,1.4,1.2,2.6,2.6,2.6c0.4,0,0.8-0.1,1.2-0.3L15.7,17.3z M20.3,19.7c0.2-0.4,0.3-0.8,0.3-1.2
	c0-1.4-1.2-2.6-2.6-2.6c-0.4,0-0.8,0.1-1.2,0.3L20.3,19.7z"/>
<circle class="st1" cx="18" cy="18.5" r="6.5"/>
<path d="M20.2,19.6C19.8,20.4,18.9,21,18,21c-1.3,0-2.4-1.1-2.4-2.4c0-1.3,1.1-2.4,2.4-2.4c0.6,0,1.1,0.2,1.5,0.5L18.2,18h3.7v-3.7
	l-1.3,1.3c-0.7-0.6-1.6-1-2.6-1c-2.1,0-3.9,1.7-3.9,3.9c0,2.1,1.7,3.9,3.9,3.9c1.7,0,3.3-1.2,3.7-2.9H20.2z"/>
</svg>
