<?xml version="1.0" encoding="utf-8"?>
<!-- Generator: Adobe Illustrator 27.8.1, SVG Export Plug-In . SVG Version: 6.00 Build 0)  -->
<svg version="1.1" id="Layer_1" xmlns="http://www.w3.org/2000/svg" xmlns:xlink="http://www.w3.org/1999/xlink" x="0px" y="0px"
	 viewBox="0 0 48 48" style="enable-background:new 0 0 48 48;" xml:space="preserve">
<style type="text/css">
	.st0{fill:none;}
</style>
<g>
	<path class="st0" d="M31.9,20.1c-1.3,0-2.3,1-2.3,2.3s1,2.3,2.3,2.3s2.3-1,2.3-2.3S33.2,20.1,31.9,20.1z"/>
	<path d="M18,8.5c3.2,0,6,1.9,7.3,4.7H30c-1.5-5.2-6.3-9-12-9c-6.9,0-12.4,5.6-12.4,12.4c0,3.5,1.5,6.7,3.9,9H5.6v4.3h7H17v-4.3v-7
		h-4.3v4.1C11,21.2,9.9,19,9.9,16.6C9.9,12.1,13.5,8.5,18,8.5z"/>
	<path d="M39.6,20.1h-2.3c-0.9-2.1-3-3.5-5.4-3.5s-4.5,1.5-5.4,3.5h-2.3c-1.6,0-2.8,1.3-2.8,2.8V41c0,1.6,1.3,2.8,2.8,2.8h15.3
		c1.6,0,2.8-1.3,2.8-2.8V23C42.4,21.4,41.1,20.1,39.6,20.1z M31.9,24.7c-1.3,0-2.3-1-2.3-2.3s1-2.3,2.3-2.3s2.3,1,2.3,2.3
		S33.2,24.7,31.9,24.7z"/>
</g>
</svg>
