<?xml version="1.0" encoding="utf-8"?>
<!-- Generator: Adobe Illustrator 27.8.1, SVG Export Plug-In . SVG Version: 6.00 Build 0)  -->
<svg version="1.1" id="Layer_1" xmlns="http://www.w3.org/2000/svg" xmlns:xlink="http://www.w3.org/1999/xlink" x="0px" y="0px"
	 viewBox="0 0 48 48" style="enable-background:new 0 0 48 48;" xml:space="preserve">
<style type="text/css">
	.st0{fill:none;}
</style>
<g>
	<rect x="24.9" y="28.6" class="st0" width="5.2" height="4.1"/>
	<rect x="33.7" y="36.2" class="st0" width="5.2" height="4.1"/>
	<rect x="24.9" y="36.2" class="st0" width="5.2" height="4.1"/>
	<rect x="33.7" y="28.6" class="st0" width="5.2" height="4.1"/>
	<rect x="24.9" y="21" class="st0" width="14" height="4.1"/>
	<path d="M39.3,17.5H24.5c-1.7,0-3.1,1.4-3.1,3.1v20.1c0,1.7,1.4,3.1,3.1,3.1h14.8c1.7,0,3.1-1.4,3.1-3.1V20.8
		C42.6,19.1,41.2,17.5,39.3,17.5z M30.1,40.3h-5.2v-4.1h5.2V40.3z M30.1,32.7h-5.2v-4.1h5.2V32.7z M38.9,40.3h-5.2v-4.1h5.2V40.3z
		 M38.9,32.7h-5.2v-4.1h5.2V32.7z M38.9,25.1h-14V21h14V25.1z"/>
	<path d="M18,8.5c3.2,0,6,1.9,7.3,4.7H30c-1.5-5.2-6.3-9-12-9c-6.9,0-12.4,5.6-12.4,12.4c0,3.5,1.5,6.7,3.9,9H5.6v4.3h7H17v-4.3v-7
		h-4.3v4.1c-1.7-1.5-2.8-3.7-2.8-6.1C9.9,12.1,13.5,8.5,18,8.5z"/>
</g>
</svg>
