<?xml version="1.0" encoding="utf-8"?>
<!-- Generator: Adobe Illustrator 25.4.1, SVG Export Plug-In . SVG Version: 6.00 Build 0)  -->
<svg version="1.1" id="Layer_1" xmlns="http://www.w3.org/2000/svg" xmlns:xlink="http://www.w3.org/1999/xlink" x="0px" y="0px"
	 viewBox="0 0 718 718" style="enable-background:new 0 0 718 718;" xml:space="preserve">
<style type="text/css">
	.st0{fill:#1D1F1F;}
	.st1{fill:#FFFFFF;}
	.st2{fill:#00AB36;}
</style>
<path class="st0" d="M718,359c0,198.27-160.73,359-359,359S0,557.27,0,359S160.73,0,359,0S718,160.73,718,359z"/>
<path class="st1" d="M592.94,349.56c-11.01-12.94-25.9-22.8-43.74-29.08c27.61-16.62,43.54-46.73,43.54-84.03
	c0-34.4-12.45-60.88-37.01-78.7c-22.49-16.32-54.38-24.6-94.79-24.6H351.24v406.42H468.2c44.29,0,81.12-10.53,106.52-30.46
	c27.31-21.43,41.15-52.25,41.15-91.6C615.86,390.69,607.94,367.19,592.94,349.56z M453.58,173.33c33.8,0,57.71,5.02,73.08,15.35
	c15.53,10.43,22.76,26.44,22.76,50.38c0,20.78-7.25,36.66-21.54,47.18c-16.3,12-42.33,18.08-77.36,18.08H394.8V173.33H453.58z
	 M394.8,344.12h66.6c36.82,0,64.98,6.33,83.68,18.8c18.21,12.15,27.45,30.64,27.45,54.96c0,27.26-9.57,47.91-28.45,61.4
	c-18.71,13.37-46.53,20.15-82.69,20.15h-66.6V344.12z"/>
<path class="st2" d="M262.2,268.99v185.23c-11.14,13.3-21.38,23.1-30.46,29.15c-9.04,6.02-19.26,8.94-31.23,8.94
	c-14.46,0-24.47-4.19-30.6-12.8c-6.61-9.28-9.96-25.32-9.96-47.69V268.99h-58.84v168.58c0,34.28,6.81,60.78,20.24,78.75
	c13.93,18.66,36.12,28.12,65.96,28.12c19.32,0,36.39-4.62,50.76-13.72c10.08-6.39,19.88-14.39,29.28-23.89l2.91,31.33h50.25V268.99
	H262.2z"/>
</svg>
