<?xml version="1.0" encoding="utf-8"?>
<!-- Generator: Adobe Illustrator 19.0.0, SVG Export Plug-In . SVG Version: 6.00 Build 0)  -->
<svg version="1.1" id="Layer_1" xmlns="http://www.w3.org/2000/svg" xmlns:xlink="http://www.w3.org/1999/xlink" x="0px" y="0px"
	 viewBox="-49 141 512 512" style="enable-background:new -49 141 512 512;" xml:space="preserve">
<path d="M207,141C66.2,141-49,256.2-49,397S66.2,653,207,653s256-115.2,256-256S347.8,141,207,141z M207,217.8
	c42.2,0,76.8,34.6,76.8,76.8s-34.6,76.8-76.8,76.8s-76.8-34.6-76.8-76.8S164.8,217.8,207,217.8L207,217.8z M207,587.5
	c-64,0-120.4-33.2-153.6-82c1.2-51.2,102.4-79.4,153.6-79.4s152.4,28.2,153.6,79.4C327.4,554.2,271,587.5,207,587.5L207,587.5z"/>
</svg>
