<?xml version="1.0" encoding="utf-8"?>
<!-- Generator: Adobe Illustrator 25.4.1, SVG Export Plug-In . SVG Version: 6.00 Build 0)  -->
<svg version="1.1" id="Layer_1" xmlns="http://www.w3.org/2000/svg" xmlns:xlink="http://www.w3.org/1999/xlink" x="0px" y="0px"
	 viewBox="0 0 512 512" style="enable-background:new 0 0 512 512;" xml:space="preserve">
<path d="M256,0C115.2,0,0,115.2,0,256s115.2,256,256,256s256-115.2,256-256S396.8,0,256,0z M256,76.8c42.2,0,76.8,34.6,76.8,76.8
	s-34.6,76.8-76.8,76.8s-76.8-34.6-76.8-76.8S213.8,76.8,256,76.8L256,76.8z M256,446.5c-64,0-120.4-33.2-153.6-82
	c1.2-51.2,102.4-79.4,153.6-79.4s152.4,28.2,153.6,79.4C376.4,413.2,320,446.5,256,446.5L256,446.5z"/>
</svg>
